<svg xmlns="http://www.w3.org/2000/svg" version="1.1" xmlns:xlink="http://www.w3.org/1999/xlink" xmlns:svgjs="http://svgjs.dev/svgjs" width="2000" height="1500" viewBox="0 0 2000 1500"><rect width="2000" height="1500" fill="#ffffff"></rect><g transform="matrix(0.4444444444444444,0,0,0.4444444444444444,555.5555555555557,250)"><svg viewBox="0 0 320 360" data-background-color="#ffffff" preserveAspectRatio="xMidYMid meet" height="2250" width="2000" xmlns="http://www.w3.org/2000/svg" xmlns:xlink="http://www.w3.org/1999/xlink"><g id="tight-bounds" transform="matrix(1,0,0,1,0,0)"><svg viewBox="0 0 320 360" height="360" width="320"><g><svg></svg></g><g><svg viewBox="0 0 320 360" height="360" width="320"><g><path xmlns="http://www.w3.org/2000/svg" d="M20.961 227.22l3.726 4.658-1.863-6.056c-0.466-2.795-3.726 0.466-1.863 1.398M25.153 224.425c1.397 2.329 2.795 4.658 2.795 6.987 0 3.261 2.795 4.658 5.123 5.589-3.261-3.726-5.124-13.974-7.918-12.576M204.017 26.929c7.918 0 15.371-0.932 23.756 0.931 20.495 5.124 37.729 15.371 49.374 29.811l32.606 52.169c1.397 13.042 4.192 27.482 3.726 43.319 3.261 0 2.795-4.658 6.521-5.59-3.726 9.316-5.59 20.961-6.521 34.469-2.329-7.453 0-18.632 0.466-24.687-3.261 5.124-5.124 1.397-5.124-0.932 0.466-3.726-1.397-3.261-2.795-4.658-5.124-4.658-8.384-9.782-12.11-17.7 2.329-6.055 2.795-14.905-4.658-19.563-2.329-1.397-5.124-3.726-6.521-7.453-1.863-5.124-5.124-11.179-4.193-19.097 0.466-2.329-6.987 5.124-11.179 1.863-18.166-12.576-36.332-27.016-58.224-39.127-11.645 0-20.029-4.192-24.221-9.316-3.726-4.658-0.932-10.713 4.658-11.179 3.261 0 6.987-0.932 9.782 0.932 0.466-1.863 2.329-4.192 4.657-4.192M157.904 16.215l0.932 0.466c4.658 0.932 6.987 7.453 12.11 5.124 0 3.261 0.466 6.521-0.466 8.85-1.397 3.726-5.59 3.726-8.85 3.726-31.208-1.863-49.374 11.179-68.471 22.358-5.124 3.261-10.713 5.59-14.906 9.782-20.029 18.632-41.921 35.866-47.045 70.335l-4.192 38.195c-0.466 4.192-5.124 8.384-4.192 13.508l3.26 22.824c-3.261-3.261-5.124 0.932-4.192 2.795 0.466 1.397 2.329 6.055 5.124 1.863 3.726 6.987 7.453 20.495 12.576 26.55 15.837 18.632 36.332 35.4 53.101 52.169 4.192-0.932 7.453-0.932 8.384-3.727 1.397 2.795-1.397 5.59-3.726 6.056 7.453 4.658 15.837 8.85 27.016 9.781 14.44 0.932 27.948 3.261 40.524 6.522 6.521-1.863 13.042-2.795 20.029-3.261 2.329 0 3.726-3.726 6.521-4.658l0.466-4.658c2.795 4.192 2.329-1.397 0.466-4.192 3.261 2.795 4.192 5.124 5.589 6.987 0-1.397 3.726-6.521 3.727-0.466l0.931-6.055c1.397-0.932 1.863 5.124 3.261 0.931 1.397-4.192 4.192-0.932 6.987-2.329-0.932 1.863-0.466 5.59 2.794 3.261l3.727-3.261c2.329 5.59 6.055 3.261 7.918 2.329 20.495-13.042 40.99-28.413 60.553-43.784l-0.466 6.055 2.329-7.453c2.329 2.329 4.192 0.466 5.124-0.931 2.795-4.658 6.521-9.316 12.577-13.508-7.453 20.029-16.303 35.866-27.482 48.908l-4.658 5.59c0 3.261-0.932 7.453-4.658 7.918-1.863 0.466-5.59-0.932-8.384 1.863-1.397 1.863 3.261 5.59-0.466 2.795-3.261-2.329-6.521 0-10.248 0.932-2.795 0.932 1.863 3.726 2.795 5.589 0.932 1.863 1.863 3.726 1.398 6.056l-5.124-5.59c-6.055 3.261-9.782 9.316-14.906 13.974-2.329 1.863-1.397 5.124-1.397 7.918-3.261 0-6.987-0.932-8.85 0.932-1.397 1.863-0.932 4.658-0.932 7.453-4.658-0.466-5.124-7.453-9.315-6.056-4.192 0.932-8.85 1.397-12.577 3.727 2.795 5.59-4.658 2.329-3.726 3.26-6.987-4.192-13.042-7.453-20.495-4.658-15.837-5.124-35.4-2.795-49.84-0.931 0-2.329 0.466-4.658-0.466-5.124-0.932 2.329-3.726 1.397-3.26 1.397-8.85-6.055-17.7-9.782-27.016-14.905-8.384 0.932-16.303-3.261-18.632-5.59-6.521-6.055-13.974-2.795-20.029-4.192-13.042-3.261-17.7-16.769-19.098-26.084-0.932-4.658-4.658-6.521-6.055-6.056-6.055-19.563-15.371-37.263-22.824-55.429-1.863-4.658-1.397-9.316-1.397-14.44 2.329 0.932 4.658 0.466 4.192-2.794-2.329-15.371-7.918-27.016-13.974-38.195 3.261-15.837 3.726-34.469 11.179-48.443 6.521-12.576 18.632-19.098 27.016-29.811 2.795-3.726 2.795-8.85 5.59-12.11 9.316-9.316 18.632-19.098 28.879-27.482 4.658-3.726 10.247 0 17.234-1.397 2.329-8.384 11.645-15.837 20.495-13.508 3.726 0.932 11.179-8.85 13.508-9.782 3.726-1.397 1.863 3.726 1.863 6.987 8.85-6.987 20.961-10.713 32.14-14.906" fill="#81c421" fill-rule="nonzero" stroke="none" stroke-width="1" stroke-linecap="butt" stroke-linejoin="miter" stroke-miterlimit="10" stroke-dasharray="" stroke-dashoffset="0" font-family="none" font-weight="none" font-size="none" text-anchor="none" style="mix-blend-mode: normal" data-fill-palette-color="tertiary"></path></g><g transform="matrix(1,0,0,1,64.00000000000001,105.95786028103946)"><svg viewBox="0 0 191.99999999999997 148.08427943792108" height="148.08427943792108" width="191.99999999999997"><g><svg viewBox="0 0 191.99999999999997 148.08427943792108" height="148.08427943792108" width="191.99999999999997"><g><svg viewBox="0 0 192.00000000000003 148.0842794379211" height="148.08427943792108" width="191.99999999999997"><g transform="matrix(1,0,0,1,0,89.50487616554382)"><svg viewBox="0 0 192.00000000000003 58.57940327237729" height="58.57940327237729" width="192.00000000000003"><g><svg viewBox="0 0 192.00000000000003 58.57940327237729" height="58.57940327237729" width="192.00000000000003"><g><svg viewBox="0 0 192.00000000000003 58.57940327237729" height="58.57940327237729" width="192.00000000000003"><g transform="matrix(1,0,0,1,0,0)"><svg width="192.00000000000003" viewBox="2 -35.400001525878906 155.83999633789062 47.55000305175781" height="58.57940327237729" data-palette-color="#111111"><path d="M10 12.15L3 12.15 3-15.1 2-20.6 3.55-23.65 9-23.65 9-21.5 9.5-21.25Q9.5-21.25 10.4-22 11.3-22.75 12.88-23.48 14.45-24.2 16.55-24.2L16.55-24.2Q21-24.2 23.53-21.35 26.05-18.5 26.05-12.35L26.05-12.35Q26.05-7.75 24.78-4.93 23.5-2.1 21.35-0.85 19.2 0.4 16.55 0.4L16.55 0.4Q13.95 0.4 12.25-0.08 10.55-0.55 10-0.75L10-0.75 10 12.15ZM13.3-4.9L13.3-4.9Q15.25-4.9 16.4-5.88 17.55-6.85 18.05-8.45 18.55-10.05 18.55-11.9L18.55-11.9Q18.55-13.7 18.15-15.25 17.75-16.8 16.73-17.73 15.7-18.65 13.8-18.65L13.8-18.65 10-17.6 10-5.55Q10-5.55 11.03-5.23 12.05-4.9 13.3-4.9ZM37.4 0L30.4 0 30.4-27.4 29.35-32.4 30.4-35.4 37.4-35.4 37.4 0ZM49.75 0.5L49.75 0.5Q46.4 0.5 44.07-1.23 41.75-2.95 41.75-6.6L41.75-6.6Q41.75-10.45 44.2-12.48 46.65-14.5 50.75-14.5L50.75-14.5Q53.75-14.5 55.32-14 56.9-13.5 57.4-13.25L57.4-13.25 57.75-13.55Q57.75-15.05 57.5-16.2 57.25-17.35 56.35-17.98 55.45-18.6 53.55-18.6L53.55-18.6Q50.15-18.6 47.47-18.05 44.8-17.5 43.25-17.05L43.25-17.05 43.25-22.55Q44.8-23.1 47.95-23.58 51.1-24.05 54.75-24.05L54.75-24.05Q57.85-24.05 59.82-23.23 61.8-22.4 62.87-21 63.95-19.6 64.37-17.93 64.8-16.25 64.8-14.6L64.8-14.6 64.8-7.95 65.8-2.9 64.8 0.05 58.25 0.05 58.25-2.4 57.75-2.65Q57.35-2.15 56.37-1.4 55.4-0.65 53.77-0.08 52.15 0.5 49.75 0.5ZM52.5-5.05L52.5-5.05Q54.65-5.05 55.87-5.45 57.1-5.85 57.75-6.25L57.75-6.25 57.75-7.2Q57.75-8.15 56.62-9.1 55.5-10.05 52.95-10.05L52.95-10.05Q51.05-10.05 50.15-9.3 49.25-8.55 49.25-7.4L49.25-7.4Q49.25-6.2 50.1-5.63 50.95-5.05 52.5-5.05ZM72.64 12.15L72.64 12.15 65.59 9.65 67.59 3.7 74.59 5.7Q76.04 5.7 77.04 4.83 78.04 3.95 78.72 2.63 79.39 1.3 79.69-0.05L79.69-0.05 75.04-0.05 69.54-17.15 68.59-23.65 76.09-23.65 79.84-5.65 80.84-5.65 84.59-23.65 92.09-23.65Q92.09-23.65 91.77-22.08 91.44-20.5 90.87-17.9 90.29-15.3 89.52-12.18 88.74-9.05 87.89-5.88 87.04-2.7 86.14-0.05L86.14-0.05Q84.79 4.1 83.17 6.8 81.54 9.5 79.09 10.83 76.64 12.15 72.64 12.15ZM103.09 12.15L96.09 12.15 96.09-15.1 95.09-20.6 96.64-23.65 102.09-23.65 102.09-21.5 102.59-21.25Q102.59-21.25 103.49-22 104.39-22.75 105.97-23.48 107.54-24.2 109.64-24.2L109.64-24.2Q114.09-24.2 116.62-21.35 119.14-18.5 119.14-12.35L119.14-12.35Q119.14-7.75 117.87-4.93 116.59-2.1 114.44-0.85 112.29 0.4 109.64 0.4L109.64 0.4Q107.04 0.4 105.34-0.08 103.64-0.55 103.09-0.75L103.09-0.75 103.09 12.15ZM106.39-4.9L106.39-4.9Q108.34-4.9 109.49-5.88 110.64-6.85 111.14-8.45 111.64-10.05 111.64-11.9L111.64-11.9Q111.64-13.7 111.24-15.25 110.84-16.8 109.81-17.73 108.79-18.65 106.89-18.65L106.89-18.65 103.09-17.6 103.09-5.55Q103.09-5.55 104.12-5.23 105.14-4.9 106.39-4.9ZM130.14 0.5L130.14 0.5Q126.79 0.5 124.46-1.23 122.14-2.95 122.14-6.6L122.14-6.6Q122.14-10.45 124.59-12.48 127.04-14.5 131.14-14.5L131.14-14.5Q134.14-14.5 135.71-14 137.29-13.5 137.79-13.25L137.79-13.25 138.14-13.55Q138.14-15.05 137.89-16.2 137.64-17.35 136.74-17.98 135.84-18.6 133.94-18.6L133.94-18.6Q130.54-18.6 127.86-18.05 125.19-17.5 123.64-17.05L123.64-17.05 123.64-22.55Q125.19-23.1 128.34-23.58 131.49-24.05 135.14-24.05L135.14-24.05Q138.24-24.05 140.21-23.23 142.19-22.4 143.26-21 144.34-19.6 144.76-17.93 145.19-16.25 145.19-14.6L145.19-14.6 145.19-7.95 146.19-2.9 145.19 0.05 138.64 0.05 138.64-2.4 138.14-2.65Q137.74-2.15 136.76-1.4 135.79-0.65 134.16-0.08 132.54 0.5 130.14 0.5ZM132.89-5.05L132.89-5.05Q135.04-5.05 136.26-5.45 137.49-5.85 138.14-6.25L138.14-6.25 138.14-7.2Q138.14-8.15 137.01-9.1 135.89-10.05 133.34-10.05L133.34-10.05Q131.44-10.05 130.54-9.3 129.64-8.55 129.64-7.4L129.64-7.4Q129.64-6.2 130.49-5.63 131.34-5.05 132.89-5.05ZM157.84 0L150.84 0 150.84-27.4 149.79-32.4 150.84-35.4 157.84-35.4 157.84 0Z" opacity="1" transform="matrix(1,0,0,1,0,0)" fill="#111111" class="undefined-text-0" data-fill-palette-color="primary" id="text-0"></path></svg></g></svg></g></svg></g></svg></g><g transform="matrix(1,0,0,1,38.17376048398185,0)"><svg viewBox="0 0 115.65247903203633 80.95673532242543" height="80.95673532242543" width="115.65247903203633"><g><svg xmlns="http://www.w3.org/2000/svg" xmlns:xlink="http://www.w3.org/1999/xlink" version="1.1" x="0" y="0" viewBox="0 9 60 42" style="enable-background:new 0 0 60 60;" xml:space="preserve" height="80.95673532242543" width="115.65247903203633" class="icon-icon-0" data-fill-palette-color="accent" id="icon-0"><g fill="#111111" data-fill-palette-color="accent"><g fill="#111111" data-fill-palette-color="accent"><path d="M59 9H1c-0.553 0-1 0.448-1 1v40c0 0.552 0.447 1 1 1h58c0.553 0 1-0.448 1-1V10C60 9.448 59.553 9 59 9zM31 23.08c3.387 0.488 6 3.4 6 6.92 0 3.52-2.613 6.432-6 6.92V23.08zM29 36.92c-3.387-0.488-6-3.4-6-6.92 0-3.52 2.613-6.432 6-6.92V36.92zM29 21.059c-4.493 0.5-8 4.317-8 8.941s3.507 8.441 8 8.941V49H2V11h27V21.059zM58 49H31V38.941c4.493-0.5 8-4.317 8-8.941s-3.507-8.441-8-8.941V11h27V49z" fill="#111111" data-fill-palette-color="accent"></path></g></g></svg></g></svg></g><g></g></svg></g></svg></g></svg></g></svg></g><defs></defs></svg><rect width="320" height="360" fill="none" stroke="none" visibility="hidden"></rect></g></svg></g></svg>