<svg width="24" height="24" viewBox="0 0 24 24" data-name="Layer 1" xmlns="http://www.w3.org/2000/svg"><defs><clipPath id="a"><path style="fill:none" d="M0 0h24v24H0z"/></clipPath></defs><g style="clip-path:url(#a)"><path d="M17.27 21.44H6.73A4.73 4.73 0 0 1 2 16.71v-4.23a4.74 4.74 0 0 1 4.73-4.73h10.54A4.74 4.74 0 0 1 22 12.48v4.23a4.73 4.73 0 0 1-4.73 4.73ZM6.73 9.75A2.73 2.73 0 0 0 4 12.48v4.23a2.73 2.73 0 0 0 2.73 2.73h10.54A2.73 2.73 0 0 0 20 16.71v-4.23a2.73 2.73 0 0 0-2.73-2.73Z"/><path d="M12 16.89h-.12l-9-1.12a1 1 0 0 1 .24-2L12 14.88l8.88-1.11a1 1 0 0 1 .24 2l-9 1.12Zm3.94-7.78a1 1 0 0 1-1-1c0-2-1.32-3.55-2.94-3.55S9.06 6.15 9.06 8.11a1 1 0 1 1-2 0c0-3.06 2.22-5.55 4.94-5.55s4.94 2.49 4.94 5.55a1 1 0 0 1-1 1Z"/></g></svg>